#!OML:ASF F:\VICON\USERDATA\INSTALL\rory3\rory3.ASF
:FULLY-SPECIFIED
:DEGREES
151
root -9.36605 15.7242 6.48208 -174.037 54.3429 -170.633
lowerback 10.4345 0.138974 3.58496
upperback -0.773664 0.766943 1.38445
thorax -6.65539 0.289564 -0.688048
lowerneck -11.7032 -7.84433 -12.1795
upperneck 30.1105 -9.09471 6.14815
head 12.8841 -4.25966 3.17919
rclavicle 4.50682e-015 -1.31198e-014
rhumerus -32.0516 -2.84893 -83.5875
rradius 28.1075
rwrist 10.6709
rhand -17.0581 14.4857
rfingers 7.12502
rthumb 9.17931 -15.2945
lclavicle 4.50682e-015 -1.31198e-014
lhumerus -33.3772 9.73067 81.8246
lradius 26.7605
lwrist -2.00275
lhand -13.1404 12.7712
lfingers 7.12502
lthumb 12.9579 42.3488
rfemur -9.86561 4.41181 32.2655
rtibia 28.6678
rfoot -17.0126 -16.9579
rtoes 2.34973
lfemur -19.7952 0.150051 -14.9737
ltibia 69.7432
lfoot 1.92351 9.98514
ltoes -7.2527
152
root -9.2822 15.7128 6.44173 -173.649 54.4385 -170.196
lowerback 10.5 0.189435 3.82141
upperback -0.794203 0.872603 1.42178
thorax -6.70839 0.333247 -0.799095
lowerneck -11.6117 -7.85943 -12.1477
upperneck 29.9758 -9.13254 6.1309
head 12.8099 -4.27927 3.16053
rclavicle -6.82111e-014 -1.23246e-014
rhumerus -31.8269 -2.71391 -83.7923
rradius 28.3958
rwrist 10.5911
rhand -17.1818 14.1604
rfingers 7.12502
rthumb 9.05996 -15.625
lclavicle -6.82111e-014 -1.23246e-014
lhumerus -33.3467 9.43743 81.9501
lradius 26.9571
lwrist -1.62063
lhand -13.4617 12.5761
lfingers 7.12502
lthumb 12.6481 42.1732
rfemur -9.5633 4.63696 32.6444
rtibia 28.8015
rfoot -17.2506 -17.0303
rtoes 2.20082
lfemur -20.9311 0.165213 -14.7417
ltibia 69.6026
lfoot 0.322659 9.8251
ltoes -8.18606
153
root -9.19943 15.6995 6.40044 -173.35 54.4477 -169.833
lowerback 10.5954 0.187563 4.02581
upperback -0.803542 0.906196 1.45677
thorax -6.76945 0.342661 -0.8834
lowerneck -11.5606 -7.83876 -12.1283
upperneck 29.8767 -9.1282 6.17223
head 12.758 -4.273 3.17368
rclavicle -6.03063e-014 -1.76918e-014
rhumerus -31.5735 -2.60472 -83.968
rradius 28.632
rwrist 10.6351
rhand -17.4459 13.8841
rfingers 7.12502
rthumb 8.80504 -15.9122
lclavicle -6.03063e-014 -1.76918e-014
lhumerus -33.312 9.29721 82.0139
lradius 27.1826
lwrist -1.32636
lhand -13.4969 12.6086
lfingers 7.12502
lthumb 12.6142 42.2078
rfemur -9.2356 4.72327 32.9966
rtibia 28.915
rfoot -17.6331 -17.1143
rtoes 2.98634
lfemur -22.0496 0.0189217 -14.5779
ltibia 69.3285
lfoot -0.925206 9.80648
ltoes -9.09411
154
root -9.1165 15.6881 6.35783 -173.272 54.5204 -169.687
lowerback 10.724 0.199264 4.10801
upperback -0.786483 0.937148 1.42591
thorax -6.8215 0.353543 -0.968284
lowerneck -11.5648 -7.79881 -12.016
upperneck 29.7559 -9.10791 6.18659
head 12.6991 -4.253 3.16128
rclavicle -9.1677e-014 -1.72943e-014
rhumerus -31.3129 -2.30457 -84.2957
rradius 28.9028
rwrist 10.3861
rhand -17.6102 13.7586
rfingers 7.12502
rthumb 8.6465 -16.0443
lclavicle -9.1677e-014 -1.72943e-014
lhumerus -33.2533 9.45777 81.8762
lradius 27.3563
lwrist -1.40078
lhand -13.3484 12.626
lfingers 7.12502
lthumb 12.7574 42.2162
rfemur -8.8656 4.82373 33.2112
rtibia 29.0343
rfoot -17.9985 -17.3191
rtoes 3.24848
lfemur -23.0564 -0.13967 -14.5644
ltibia 68.8893
lfoot -2.18081 9.6246
ltoes -10.8652
155
root -9.03108 15.6754 6.31156 -173.295 54.6153 -169.716
lowerback 10.756 0.252502 4.13946
upperback -0.766211 1.00515 1.33427
thorax -6.81267 0.383529 -1.09381
lowerneck -11.6747 -7.81177 -11.9193
upperneck 29.7429 -9.15413 6.21697
head 12.7167 -4.25878 3.14584
rclavicle 5.84054e-014 -1.19271e-015
rhumerus -31.134 -1.89471 -84.7032
rradius 29.3028
rwrist 9.8402
rhand -17.6226 13.5866
rfingers 7.12502
rthumb 8.63457 -16.2168
lclavicle 5.84054e-014 -1.19271e-015
lhumerus -33.1819 9.29235 81.8475
lradius 27.4902
lwrist -1.22179
lhand -13.3787 12.6224
lfingers 7.12502
lthumb 12.7281 42.2145
rfemur -8.50982 5.01156 33.3008
rtibia 29.1481
rfoot -18.5369 -17.3993
rtoes 4.07574
lfemur -23.9687 -0.361431 -14.6711
ltibia 68.2593
lfoot -3.48154 9.318
ltoes -11.9456
156
root -8.9439 15.6609 6.26462 -173.35 54.6725 -169.823
lowerback 10.758 0.455722 4.19267
upperback -0.770395 1.26425 1.12949
thorax -6.79954 0.502571 -1.38141
lowerneck -11.7173 -7.98985 -11.6341
upperneck 29.7667 -9.49761 6.27094
head 12.7577 -4.36981 3.06265
rclavicle 1.02902e-013 2.18663e-015
rhumerus -31.0864 -2.35449 -84.9262
rradius 29.7173
rwrist 9.72346
rhand -17.4934 13.613
rfingers 7.12502
rthumb 8.75927 -16.1852
lclavicle 1.02902e-013 2.18663e-015
lhumerus -32.9975 8.33332 82.0208
lradius 27.5805
lwrist -0.71381
lhand -13.5126 12.7418
lfingers 7.12502
lthumb 12.599 42.3419
rfemur -8.14218 5.08585 33.3466
rtibia 29.1979
rfoot -18.7801 -17.5652
rtoes 3.71041
lfemur -24.8332 -0.626224 -14.8015
ltibia 67.463
lfoot -4.68989 9.19394
ltoes -12.0244
157
root -8.8564 15.6582 6.21852 -173.633 54.7451 -170.213
lowerback 10.7827 0.647427 4.03146
upperback -0.782664 1.48161 0.930153
thorax -6.81273 0.608325 -1.53636
lowerneck -11.5288 -8.1325 -11.3957
upperneck 29.5318 -9.79705 6.30912
head 12.6399 -4.47859 2.99043
rclavicle -6.65929e-015 2.18663e-014
rhumerus -31.0464 -2.59889 -85.1288
rradius 30.1269
rwrist 9.51391
rhand -17.4854 13.6224
rfingers 7.12502
rthumb 8.76691 -16.1755
lclavicle -6.65929e-015 2.18663e-014
lhumerus -32.8674 7.71859 82.1049
lradius 27.6868
lwrist -0.432234
lhand -13.4142 12.8615
lfingers 7.12502
lthumb 12.6939 42.4557
rfemur -7.78094 5.14404 33.219
rtibia 29.2397
rfoot -18.9475 -17.8182
rtoes 3.08546
lfemur -25.7605 -1.03953 -15.0323
ltibia 66.5158
lfoot -6.06791 9.27835
ltoes -9.77047
